<svg width="1024" height="1024" viewBox="0 0 1024 1024" fill="none" xmlns="http://www.w3.org/2000/svg">
<path d="M675.77 906.027C612.781 928.983 549.653 931.923 486.385 914.846C423.117 898.049 363.348 854.377 307.078 783.83L173.963 616.701C171.723 613.622 169.484 610.402 167.244 607.043C165.005 603.684 163.045 599.764 161.365 595.285C157.446 584.087 158.006 573.029 163.045 562.111C168.084 550.913 177.322 542.935 190.76 538.176C199.718 534.816 208.257 534.257 216.375 536.496C224.773 538.736 233.032 544.055 241.15 552.453L349.07 668.352C353.549 672.831 357.469 675.77 360.828 677.17C364.467 678.29 367.967 678.29 371.326 677.17C374.686 676.05 377.205 673.531 378.885 669.611C380.844 665.692 380.984 661.073 379.305 655.754L219.314 217.355C213.995 202.798 213.855 189.641 218.895 177.883C224.214 165.845 233.452 157.447 246.609 152.688C258.927 148.208 270.825 148.908 282.303 154.787C294.061 160.386 302.599 170.464 307.918 185.021L417.098 484.426C419.897 492.264 423.816 497.583 428.855 500.383C433.895 502.902 438.934 503.322 443.973 501.643C448.732 499.683 452.091 496.184 454.051 491.145C456.29 485.826 455.87 479.247 452.791 471.408L420.457 381.965C415.418 368.527 420.597 359.009 435.994 353.41C453.351 347.251 469.868 347.531 485.545 354.25C501.222 360.969 513.26 375.806 521.658 398.762L537.195 440.754C539.995 448.872 543.914 454.191 548.953 456.711C553.992 459.23 559.031 459.65 564.07 457.971C568.829 456.011 572.189 452.512 574.148 447.473C576.108 442.154 575.688 435.575 572.889 427.736L556.512 381.965C551.473 368.527 556.652 359.009 572.049 353.41C589.686 346.971 606.622 347.811 622.859 355.93C639.096 364.048 650.854 378.326 658.133 398.762L666.111 420.598C669.191 428.716 673.11 434.035 677.869 436.555C682.908 439.074 688.087 439.494 693.406 437.814C697.885 435.855 701.105 432.355 703.064 427.316C705.304 421.997 705.024 415.419 702.225 407.58L690.047 373.986C686.967 365.588 689.767 359.709 698.445 356.35C711.043 351.87 724.34 352.15 738.338 357.189C752.335 362.229 765.633 371.887 778.23 386.164C791.108 400.441 801.746 419.198 810.145 442.434L837.859 518.02C859.975 579.328 868.514 635.458 863.475 686.408C858.436 737.079 840.099 781.171 808.465 818.684C777.111 856.197 732.879 885.311 675.77 906.027Z" fill="white" style="fill:white;fill-opacity:1;"/>
</svg>
